<?xml version="1.0" encoding="utf-8"?>
<!-- Generator: Adobe Illustrator 26.5.0, SVG Export Plug-In . SVG Version: 6.00 Build 0)  -->
<svg version="1.1" id="Layer_1" xmlns="http://www.w3.org/2000/svg" xmlns:xlink="http://www.w3.org/1999/xlink" x="0px" y="0px"
	 viewBox="0 0 36 36" style="enable-background:new 0 0 36 36;" xml:space="preserve">
<style type="text/css">
	.st0{fill:#015A89;}
	.st1{fill:#FFFFFF;}
</style>
<path class="st0" d="M0,0v36h36V0H0z M32.6,18.7H18.7v13.9c0,0.4-0.3,0.7-0.7,0.7s-0.7-0.3-0.7-0.7V18.7H3.4c-0.4,0-0.7-0.3-0.7-0.7
	c0-0.4,0.3-0.7,0.7-0.7h13.9V3.4c0-0.4,0.3-0.7,0.7-0.7s0.7,0.3,0.7,0.7v13.9h13.9c0.4,0,0.7,0.3,0.7,0.7
	C33.3,18.4,33,18.7,32.6,18.7z"/>
<g>
	<g>
		<path class="st1" d="M33.3,18c0,0.4-0.3,0.7-0.7,0.7H18.7v13.9c0,0.4-0.3,0.7-0.7,0.7s-0.7-0.3-0.7-0.7V18.7H3.4
			c-0.4,0-0.7-0.3-0.7-0.7c0-0.4,0.3-0.7,0.7-0.7h13.9V3.4c0-0.4,0.3-0.7,0.7-0.7s0.7,0.3,0.7,0.7v13.9h13.9
			C33,17.3,33.3,17.6,33.3,18z"/>
	</g>
</g>
</svg>
