<?xml version="1.0" encoding="utf-8"?>
<!-- Generator: Adobe Illustrator 26.5.0, SVG Export Plug-In . SVG Version: 6.00 Build 0)  -->
<svg version="1.1" id="Layer_1" xmlns="http://www.w3.org/2000/svg" xmlns:xlink="http://www.w3.org/1999/xlink" x="0px" y="0px"
	 viewBox="0 0 36 36" style="enable-background:new 0 0 36 36;" xml:space="preserve">
<style type="text/css">
	.st0{fill:#015A89;}
	.st1{fill:#FFFFFF;}
</style>
<rect class="st0" width="36" height="36"/>
<g>
	<path class="st1" d="M25,4.9h2.5C27.8,4.9,28,5,28,5.3v21.5c0,0.2-0.2,0.4-0.4,0.4H25c-0.2,0-0.4-0.2-0.4-0.4V5.3
		C24.6,5,24.8,4.9,25,4.9z"/>
	<path class="st1" d="M20.9,8.8h2.5c0.2,0,0.4,0.2,0.4,0.4v17.6c0,0.2-0.2,0.4-0.4,0.4h-2.5c-0.2,0-0.4-0.2-0.4-0.4V9.2
		C20.5,9,20.6,8.8,20.9,8.8z"/>
	<path class="st1" d="M16.7,12.7h2.5c0.2,0,0.4,0.2,0.4,0.4v13.7c0,0.2-0.2,0.4-0.4,0.4h-2.5c-0.2,0-0.4-0.2-0.4-0.4V13.1
		C16.3,12.9,16.5,12.7,16.7,12.7z"/>
	<path class="st1" d="M12.6,16.6h2.5c0.2,0,0.4,0.2,0.4,0.4v9.8c0,0.2-0.2,0.4-0.4,0.4h-2.5c-0.2,0-0.4-0.2-0.4-0.4V17
		C12.2,16.8,12.4,16.6,12.6,16.6z"/>
	<path class="st1" d="M8.4,20.5H11c0.2,0,0.4,0.2,0.4,0.4v5.9c0,0.2-0.2,0.4-0.4,0.4H8.4C8.2,27.2,8,27,8,26.8v-5.9
		C8,20.7,8.2,20.5,8.4,20.5z"/>
	<path class="st1" d="M29.5,28.3c0.3,0.3,0.5,0.7,0.5,1.2c0,0.5-0.2,0.9-0.5,1.2c-0.3,0.3-0.7,0.5-1.2,0.5H7.7
		c-0.5,0-0.9-0.2-1.2-0.5C6.2,30.3,6,29.9,6,29.5c0-0.5,0.2-0.9,0.5-1.2c0.3-0.3,0.7-0.5,1.2-0.5h20.6C28.8,27.8,29.2,28,29.5,28.3z
		"/>
</g>
</svg>
